<svg width="45" height="45" viewBox="0 0 45 45" xmlns="http://www.w3.org/2000/svg">
<g id="iconmonstr-glasses-1 1">
<path id="Vector" d="M45 22.5C45 23.535 44.16 24.375 43.125 24.375L42.9394 24.3375C42.0844 28.635 38.2988 31.875 33.75 31.875C29.8463 31.875 26.5312 29.4806 25.1325 26.085C24.3056 24.0769 24.5212 21.4969 22.4531 21.4969C20.4788 21.4969 20.7712 23.94 19.8431 26.1488C18.4294 29.5106 15.1294 31.875 11.25 31.875C6.70312 31.875 2.91563 28.635 2.06063 24.3375L1.875 24.375C0.84 24.375 0 23.535 0 22.5C0 21.465 0.84 20.625 1.875 20.625H2.06437C2.9325 16.3463 6.71625 13.125 11.25 13.125C15.6694 13.125 19.3481 16.1925 20.34 20.3062C20.9831 19.8506 21.7331 19.62 22.4513 19.62C23.1825 19.62 23.9681 19.8656 24.6431 20.3569C25.6162 16.215 29.3138 13.125 33.75 13.125C38.2856 13.125 42.0675 16.3463 42.9356 20.625H43.125C44.16 20.625 45 21.465 45 22.5ZM18.75 22.5C18.75 18.3637 15.3862 15 11.25 15C7.11375 15 3.75 18.3637 3.75 22.5C3.75 26.6362 7.11375 30 11.25 30C15.3862 30 18.75 26.6362 18.75 22.5ZM41.25 22.5C41.25 18.3637 37.8862 15 33.75 15C29.6138 15 26.25 18.3637 26.25 22.5C26.25 26.6362 29.6138 30 33.75 30C37.8862 30 41.25 26.6362 41.25 22.5ZM31.875 16.9913C32.2463 16.9219 32.6269 16.875 33.0169 16.875C36.5269 16.875 39.375 19.7212 39.375 23.2331L39.3225 23.7638C37.8938 20.5894 35.1956 18.12 31.875 16.9913ZM5.6775 23.7619L5.625 23.2331C5.625 19.7212 8.47312 16.875 11.9831 16.875C12.3731 16.875 12.7537 16.9219 13.125 16.9913C9.80437 18.12 7.10625 20.5894 5.6775 23.7619Z" />
</g>
</svg>
